<?xml version="1.0" encoding="UTF-8"?>
<svg id="Layer_2" data-name="Layer 2" xmlns="http://www.w3.org/2000/svg" viewBox="0 0 1200.01 144.08">
  <g id="Layer_1-2" data-name="Layer 1">
    <path d="M.08,76.51c1.89,39.17,35.18,69.38,74.34,67.49s55.78-26.72,54.57-51.69c-.87-17.98-13.63-33.38-35.99-40.31-22.36-6.93-41.58-11.01-42.3-25.99C49.5,1.03,90.42,3.3,76.27,2.27c-2.86-.21-5.76-.25-8.7-.11C28.41,4.06-1.81,37.34,.08,76.51Z"/>
    <g>
      <path d="M253.26,139.01c-21.26,0-39.19-15.53-39.74-37.53h12.94c.37,20.52,15.53,26.43,33.46,26.43,14.97,0,32.16-8.69,32.16-25.69,0-13.31-9.61-19.6-20.89-23.29-21.63-7.21-54.53-14.05-54.53-42.89,0-23.29,21.44-36.05,42.52-36.05,17.56,0,40.48,6.1,43.44,31.79h-12.94c-.37-16.45-15.34-20.7-29.02-20.7s-31.06,7.02-31.06,23.29c0,37.9,75.42,20.71,75.42,66.73,0,29.02-24.96,37.9-51.76,37.9Z"/>
      <path d="M334.04,136.24V2.77h12.02V61.37h72.83V2.77h12.02V136.24h-12.02v-63.77h-72.83v63.77h-12.02Z"/>
      <path d="M468.04,136.24V2.77h79.3V13.86h-67.29V61.74h64.7v11.09h-64.7v52.32h70.06v11.09h-82.08Z"/>
      <path d="M593.18,136.24h-12.02V2.77h43.63c11.65,0,21.26,.74,31.43,7.02,9.24,5.55,13.68,15.16,13.68,27.91,0,14.42-10.17,24.77-25.69,28.65v.37c17.01,2.77,20.7,14.23,22.37,29.76,2.4,21.63,1.66,31.61,7.02,39.74h-13.86c-3.14-8.87-3.88-18.3-4.62-27.73-2.77-30.5-4.62-35.86-28.84-35.86h-33.09v63.59Zm25.69-74.68c17.01,0,38.08-1.11,38.08-23.84,0-25.7-24.03-23.85-36.79-23.85h-26.99V61.56h25.69Z"/>
      <path d="M716.47,136.24h-12.02V2.77h43.63c11.65,0,21.26,.74,31.43,7.02,9.24,5.55,13.68,15.16,13.68,27.91,0,14.42-10.17,24.77-25.69,28.65v.37c17.01,2.77,20.7,14.23,22.37,29.76,2.4,21.63,1.66,31.61,7.02,39.74h-13.86c-3.14-8.87-3.88-18.3-4.62-27.73-2.77-30.5-4.62-35.86-28.84-35.86h-33.09v63.59Zm25.69-74.68c17.01,0,38.08-1.11,38.08-23.84,0-25.7-24.03-23.85-36.79-23.85h-26.99V61.56h25.69Z"/>
      <path d="M828.48,136.24V2.22h12.02V136.24h-12.02Z"/>
      <path d="M1011.67,34.01c-2.22-16.27-16.27-22.92-31.43-22.92-34.2,0-44.55,31.06-44.55,58.41s10.35,58.41,44.55,58.41c14.79,0,29.58-7.39,32.91-24.03h12.94c-3.88,22.37-24.4,35.12-45.85,35.12-40.48,0-57.49-32.53-57.49-69.51S939.94,0,980.24,0c21.81,0,42.52,9.98,44.37,34.01h-12.94Z"/>
      <path d="M1064.71,2.77V89.1c.92,24.22,14.79,38.82,36.79,38.82s35.86-14.6,36.79-38.82V2.77h12.02V89.28c-.37,28.65-16.45,49.73-48.8,49.73s-48.43-21.07-48.8-49.73V2.77h12.02Z"/>
      <path d="M1187.99,136.24V2.22h12.02V136.24h-12.02Z"/>
    </g>
  </g>
</svg>